<?xml version="1.0" encoding="utf-8"?>
<svg viewBox="66.087 51.967 314.865 59.865" xmlns="http://www.w3.org/2000/svg" xmlns:xlink="http://www.w3.org/1999/xlink" xmlns:bx="https://boxy-svg.com">
  <defs>
    <clipPath id="clip0_1_321">
      <rect width="28.4075" height="28" fill="white"/>
    </clipPath>
    <path id="path-0" d="M 193.431 250.811 L 272.81 295.519" style="fill: none;"/>
    <linearGradient id="color-0" bx:pinned="true">
      <stop style="stop-color: rgb(239, 239, 239);"/>
    </linearGradient>
    <linearGradient id="color-1" bx:pinned="true">
      <stop style="stop-color: rgb(33, 33, 33);"/>
    </linearGradient>
    <linearGradient id="gradient-8" bx:pinned="true">
      <title>geek</title>
      <stop offset="0" style="stop-color: rgb(196, 196, 196);"/>
      <stop offset="0.995" style="stop-color: rgb(69, 69, 69);"/>
    </linearGradient>
    <linearGradient id="gradient-8-4" gradientUnits="userSpaceOnUse" x1="283.536" y1="57.44" x2="283.536" y2="99.48" xlink:href="#gradient-8"/>
    <linearGradient id="gradient-8-5" gradientUnits="userSpaceOnUse" x1="314.207" y1="68.068" x2="314.207" y2="99.772" xlink:href="#gradient-8"/>
    <linearGradient id="gradient-8-6" gradientUnits="userSpaceOnUse" x1="341.564" y1="68.068" x2="341.564" y2="99.772" xlink:href="#gradient-8"/>
    <linearGradient id="gradient-8-7" gradientUnits="userSpaceOnUse" x1="369.312" y1="56.565" x2="369.312" y2="99.187" xlink:href="#gradient-8"/>
  </defs>
  <g clip-path="url(#clip0_1_321)" transform="matrix(3.447445, 0, 0, 3.569635, 56.416866, 32.141842)" style="">
    <path d="M25.543 18.7717L24.2528 9.835C23.9214 7.53666 21.921 5.83333 19.5656 5.83333H8.84175C6.4863 5.83333 4.48594 7.53666 4.15452 9.835L2.86434 18.7717C2.60394 20.5683 4.01248 22.1667 5.84713 22.1667C6.65201 22.1667 7.40954 21.8517 7.97769 21.2917L10.6527 18.6667H17.7546L20.4178 21.2917C20.9859 21.8517 21.7553 22.1667 22.5484 22.1667C24.3948 22.1667 25.8034 20.5683 25.543 18.7717ZM13.02 12.8333H10.6527V15.1667H9.46908V12.8333H7.10179V11.6667H9.46908V9.33333H10.6527V11.6667H13.02V12.8333ZM17.7546 11.6667C17.1036 11.6667 16.571 11.1417 16.571 10.5C16.571 9.85833 17.1036 9.33333 17.7546 9.33333C18.4056 9.33333 18.9382 9.85833 18.9382 10.5C18.9382 11.1417 18.4056 11.6667 17.7546 11.6667ZM20.1219 15.1667C19.4709 15.1667 18.9382 14.6417 18.9382 14C18.9382 13.3583 19.4709 12.8333 20.1219 12.8333C20.7729 12.8333 21.3055 13.3583 21.3055 14C21.3055 14.6417 20.7729 15.1667 20.1219 15.1667Z" style="stroke: rgb(250, 250, 250); stroke-width: 0.285019px; fill: rgb(51, 176, 214);"/>
  </g>
  <path d="M 293.158 94.516 C 290.566 97.826 287.55 99.48 284.106 99.48 C 281.974 99.48 279.965 98.935 278.074 97.844 C 276.217 96.755 274.588 95.257 273.185 93.349 C 271.813 91.441 270.718 89.204 269.893 86.633 C 269.103 84.027 268.706 81.224 268.706 78.227 C 268.706 75.386 269.103 72.719 269.893 70.228 C 270.718 67.697 271.83 65.497 273.231 63.63 C 274.663 61.723 276.338 60.224 278.258 59.134 C 280.177 58.005 282.264 57.44 284.52 57.44 C 287.567 57.44 290.171 58.259 292.333 59.894 C 294.527 61.528 296.174 63.728 297.269 66.49 L 292.563 70.929 C 291.739 68.866 290.582 67.289 289.09 66.199 C 287.628 65.11 286.027 64.565 284.291 64.565 C 282.921 64.565 281.657 64.934 280.498 65.673 C 279.371 66.412 278.395 67.424 277.572 68.709 C 276.78 69.993 276.154 71.474 275.699 73.148 C 275.27 74.821 275.058 76.593 275.058 78.459 C 275.058 80.406 275.302 82.235 275.789 83.948 C 276.277 85.622 276.948 87.083 277.801 88.329 C 278.654 89.574 279.66 90.566 280.817 91.305 C 282.005 92.006 283.286 92.356 284.657 92.356 C 287.794 92.356 290.628 90.468 293.158 86.692 L 293.158 83.773 L 286.621 83.773 L 286.621 77.876 L 298.367 77.876 L 298.367 99.187 L 293.158 99.187 L 293.158 94.516 Z" style="fill-rule: nonzero; paint-order: fill; fill: url(#gradient-8-4); stroke: rgb(250, 250, 250);"/>
  <path d="M 314.252 99.772 C 312.333 99.772 310.596 99.363 309.042 98.546 C 307.488 97.69 306.162 96.541 305.066 95.101 C 303.969 93.66 303.118 91.987 302.507 90.079 C 301.927 88.172 301.64 86.168 301.64 84.065 C 301.64 81.886 301.927 79.842 302.507 77.934 C 303.087 75.989 303.925 74.295 305.02 72.855 C 306.118 71.376 307.442 70.207 308.996 69.352 C 310.581 68.495 312.348 68.068 314.297 68.068 C 316.247 68.068 317.984 68.495 319.507 69.352 C 321.063 70.207 322.371 71.357 323.44 72.797 C 324.535 74.237 325.358 75.911 325.904 77.818 C 326.485 79.725 326.773 81.71 326.773 83.773 C 326.773 84.279 326.76 84.766 326.729 85.233 C 326.729 85.7 326.698 86.089 326.637 86.401 L 308.129 86.401 C 308.219 87.607 308.448 88.678 308.813 89.612 C 309.179 90.545 309.652 91.345 310.231 92.006 C 310.81 92.668 311.464 93.173 312.195 93.523 C 312.926 93.874 313.689 94.049 314.48 94.049 C 315.699 94.049 316.84 93.68 317.908 92.94 C 319.005 92.162 319.754 91.149 320.148 89.904 L 325.404 91.772 C 324.521 94.108 323.102 96.034 321.155 97.553 C 319.234 99.033 316.933 99.772 314.252 99.772 Z M 320.468 81.322 C 320.316 79.026 319.644 77.194 318.456 75.832 C 317.298 74.432 315.882 73.73 314.207 73.73 C 313.383 73.73 312.608 73.925 311.876 74.315 C 311.175 74.665 310.552 75.172 310.003 75.832 C 309.455 76.495 308.996 77.292 308.632 78.227 C 308.295 79.16 308.097 80.192 308.039 81.322 L 320.468 81.322 Z" style="fill-rule: nonzero; paint-order: fill; fill: url(#gradient-8-5); stroke: rgb(250, 250, 250);"/>
  <path d="M 341.61 99.772 C 339.692 99.772 337.953 99.363 336.401 98.546 C 334.847 97.69 333.522 96.541 332.425 95.101 C 331.328 93.66 330.473 91.987 329.866 90.079 C 329.286 88.172 328.996 86.168 328.996 84.065 C 328.996 81.886 329.286 79.842 329.866 77.934 C 330.445 75.989 331.282 74.295 332.379 72.855 C 333.476 71.376 334.802 70.207 336.355 69.352 C 337.939 68.495 339.706 68.068 341.657 68.068 C 343.606 68.068 345.342 68.495 346.868 69.352 C 348.421 70.207 349.73 71.357 350.796 72.797 C 351.894 74.237 352.716 75.911 353.265 77.818 C 353.842 79.725 354.132 81.71 354.132 83.773 C 354.132 84.279 354.117 84.766 354.087 85.233 C 354.087 85.7 354.058 86.089 353.996 86.401 L 335.487 86.401 C 335.578 87.607 335.806 88.678 336.172 89.612 C 336.537 90.545 337.011 91.345 337.588 92.006 C 338.168 92.668 338.823 93.173 339.556 93.523 C 340.286 93.874 341.047 94.049 341.839 94.049 C 343.057 94.049 344.2 93.68 345.266 92.94 C 346.365 92.162 347.109 91.149 347.505 89.904 L 352.761 91.772 C 351.877 94.108 350.462 96.034 348.511 97.553 C 346.592 99.033 344.293 99.772 341.61 99.772 Z M 347.826 81.322 C 347.672 79.026 347.004 77.194 345.815 75.832 C 344.657 74.432 343.239 73.73 341.564 73.73 C 340.742 73.73 339.964 73.925 339.234 74.315 C 338.533 74.665 337.908 75.172 337.36 75.832 C 336.811 76.495 336.355 77.292 335.988 78.227 C 335.655 79.16 335.457 80.192 335.396 81.322 L 347.826 81.322 Z" style="fill-rule: nonzero; paint-order: fill; fill: url(#gradient-8-6); stroke: rgb(250, 250, 250);"/>
  <path d="M 374.225 99.187 L 367.277 85.934 L 363.988 90.079 L 363.988 99.187 L 357.865 99.187 L 357.865 56.565 L 363.988 56.565 L 363.988 82.43 L 373.584 68.651 L 380.12 68.651 L 371.207 81.613 L 380.759 99.187 L 374.225 99.187 Z" style="fill-rule: nonzero; paint-order: fill; fill: url(#gradient-8-7); stroke: rgb(250, 250, 250);"/>
  <path d="M 162.792 57.734 L 168.366 57.734 L 180.707 99.187 L 174.22 99.187 L 171.203 88.853 L 159.869 88.853 L 156.898 99.187 L 150.408 99.187 L 162.792 57.734 Z M 170.059 83.19 L 165.581 66.9 L 160.918 83.19 L 170.059 83.19 Z" style="stroke: rgb(250, 250, 250); fill: rgb(51, 176, 214);"/>
  <path d="M 183.625 56.565 L 189.75 56.565 L 189.75 89.379 C 189.75 90.508 189.963 91.383 190.391 92.006 C 190.818 92.628 191.426 92.94 192.217 92.94 C 192.585 92.94 192.98 92.862 193.408 92.706 C 193.863 92.551 194.291 92.356 194.685 92.122 L 195.51 98.077 C 194.685 98.584 193.726 98.974 192.628 99.247 C 191.533 99.519 190.544 99.655 189.66 99.655 C 187.741 99.655 186.247 99.011 185.18 97.728 C 184.144 96.405 183.625 94.536 183.625 92.122 L 183.625 56.565 Z" style="stroke: rgb(250, 250, 250); fill: rgb(51, 176, 214);"/>
  <path d="M 205.49 99.772 C 203.022 99.772 201.148 98.759 199.867 96.736 C 198.589 94.711 197.948 91.714 197.948 87.744 L 197.948 68.592 L 204.073 68.592 L 204.073 86.052 C 204.073 90.76 205.399 93.116 208.049 93.116 C 209.238 93.116 210.381 92.668 211.475 91.772 C 212.603 90.839 213.518 89.438 214.218 87.568 L 214.218 68.592 L 220.342 68.592 L 220.342 90.196 C 220.342 91.013 220.449 91.598 220.662 91.948 C 220.904 92.297 221.287 92.493 221.805 92.532 L 221.805 99.187 C 221.194 99.344 220.677 99.44 220.252 99.48 C 219.854 99.519 219.489 99.537 219.154 99.537 C 218.058 99.537 217.159 99.228 216.459 98.605 C 215.788 97.943 215.392 97.046 215.268 95.918 L 215.133 93.466 C 214.066 95.567 212.695 97.144 211.018 98.194 C 209.344 99.247 207.498 99.772 205.49 99.772 Z" style="stroke: rgb(250, 250, 250); fill: rgb(51, 176, 214);"/>
  <path d="M 240.685 75.366 C 238.827 75.405 237.168 75.872 235.705 76.766 C 234.244 77.624 233.192 78.928 232.553 80.679 L 232.553 99.187 L 226.428 99.187 L 226.428 68.592 L 232.049 68.592 L 232.049 75.131 C 232.476 74.082 232.979 73.148 233.557 72.33 C 234.137 71.474 234.762 70.733 235.432 70.111 C 236.102 69.489 236.77 69.02 237.442 68.709 C 238.142 68.359 238.815 68.183 239.452 68.183 C 239.787 68.183 240.032 68.183 240.184 68.183 C 240.367 68.183 240.533 68.204 240.685 68.241 L 240.685 75.366 Z" style="stroke: rgb(250, 250, 250); fill: rgb(51, 176, 214);"/>
  <path d="M 250.326 99.772 C 249.167 99.772 248.085 99.537 247.08 99.069 C 246.074 98.565 245.204 97.884 244.475 97.027 C 243.742 96.132 243.165 95.101 242.739 93.932 C 242.342 92.765 242.142 91.481 242.142 90.079 C 242.142 88.639 242.387 87.316 242.875 86.11 C 243.394 84.862 244.093 83.812 244.975 82.957 C 245.892 82.1 246.971 81.438 248.222 80.971 C 249.47 80.465 250.843 80.211 252.335 80.211 C 253.401 80.211 254.437 80.328 255.442 80.563 C 256.48 80.797 257.395 81.128 258.185 81.554 L 258.185 79.803 C 258.185 77.779 257.728 76.221 256.814 75.131 C 255.932 74.042 254.605 73.497 252.839 73.497 C 251.559 73.497 250.31 73.789 249.091 74.373 C 247.872 74.957 246.623 75.813 245.341 76.943 L 243.468 71.98 C 246.545 69.372 249.868 68.068 253.432 68.068 C 256.875 68.068 259.541 69.158 261.429 71.337 C 263.348 73.477 264.309 76.593 264.309 80.679 L 264.309 90.196 C 264.309 91.013 264.414 91.598 264.63 91.948 C 264.871 92.297 265.254 92.493 265.772 92.532 L 265.772 99.187 C 264.736 99.459 263.836 99.596 263.076 99.596 C 261.916 99.596 261.019 99.265 260.377 98.605 C 259.77 97.943 259.389 97.066 259.236 95.976 L 259.1 94.284 C 258.032 96.074 256.74 97.435 255.213 98.37 C 253.691 99.304 252.062 99.772 250.326 99.772 Z M 252.062 94.049 C 253.097 94.049 254.071 93.815 254.985 93.349 C 255.932 92.882 256.663 92.259 257.179 91.481 C 257.85 90.82 258.185 90.079 258.185 89.262 L 258.185 85.758 C 257.454 85.407 256.663 85.135 255.807 84.941 C 254.955 84.709 254.133 84.591 253.342 84.591 C 251.756 84.591 250.461 85.058 249.456 85.992 C 248.451 86.887 247.947 88.035 247.947 89.438 C 247.947 90.76 248.344 91.87 249.137 92.765 C 249.929 93.621 250.904 94.049 252.062 94.049 Z" style="stroke: rgb(250, 250, 250); fill: rgb(51, 176, 214);"/>
</svg>